<svg width="63" height="63" viewBox="0 0 24 24" fill="none" xmlns="http://www.w3.org/2000/svg">
<path d="M18.375 20.625V17.25H20.625V21.375C20.625 21.7728 20.467 22.1544 20.1857 22.4357C19.9044 22.717 19.5228 22.875 19.125 22.875H18.375V20.625Z" fill="#F6BB92"/>
<path d="M20.1444 15L20.5055 14.1111L20.8258 13.3227C20.9974 12.8988 21.0435 12.4314 20.9584 11.9801C20.8732 11.5288 20.6605 11.1141 20.3476 10.7889C19.9298 10.3548 19.6951 9.76607 19.6952 9.15222V7H10.3049V9.15239C10.305 9.76623 10.0703 10.355 9.65254 10.7891C9.33955 11.1142 9.12689 11.5289 9.04167 11.9801C8.95646 12.4314 9.00257 12.8988 9.1741 13.3227L9.51313 14.1606L20.1444 15Z" fill="#834B10"/>
<path d="M20.625 15.4061C20.625 14.8735 20.4361 14.3582 20.0918 13.9518C19.7475 13.5454 19.2703 13.2743 18.7449 13.1867L18.375 13.1251L16.4384 12.8023L15 14.2501L13.5465 12.7911L10.875 13.1251V22.8751H18.375V19.8751C18.7142 19.5357 18.9284 19.0914 18.9825 18.6147C19.0367 18.1379 18.9277 17.6569 18.6732 17.2501H20.625V15.4061Z" fill="#5D62B5"/>
<path d="M20 9H10V6.17647C10 4.80359 10.5268 3.48693 11.4645 2.51615C12.4021 1.54538 13.6739 1 15 1C16.3261 1 17.5979 1.54538 18.5355 2.51615C19.4732 3.48693 20 4.80359 20 6.17647V9Z" fill="#834B10"/>
<path d="M18 6.375V6L17.625 4.125H12.375L12 6V6.375C11.7016 6.375 11.4155 6.49353 11.2045 6.7045C10.9935 6.91548 10.875 7.20163 10.875 7.5C10.875 7.79837 10.9935 9.28902 11.2045 9.5C11.4155 9.71098 11.3091 9.4386 11.6074 9.4386L11.5 9.5H12C12 10.1962 12.6516 10.3639 13.1438 10.8562C13.6361 11.3484 14.3038 11.625 15 11.625C15.6962 11.625 16.3639 11.3484 16.8562 10.8562C17.3484 10.3639 17.625 10.1348 17.625 9.4386L18 9.5H18.5C18.7984 9.5 18.5845 9.64958 18.7955 9.4386C19.0065 9.22763 19.125 7.79837 19.125 7.5C19.125 7.20163 19.0065 6.91548 18.7955 6.7045C18.5845 6.49353 18.2984 6.375 18 6.375Z" fill="#F6BB92"/>
<path d="M14.625 15.682V22.8749H6.23438C6.5141 22.4395 6.83971 22.0353 7.20563 21.6693L7.23328 21.6417C7.90379 20.9723 8.44014 20.1809 8.81344 19.3101C8.96063 18.967 9.10734 18.6239 9.21422 18.3749C9.31125 18.1485 9.375 17.9999 9.375 17.9999H8.29594C7.9615 17.9997 7.63674 17.8877 7.37315 17.6819C7.10957 17.4761 6.92226 17.1881 6.84094 16.8637L6.65625 16.1249L6.60797 15.9318C6.58033 15.8213 6.57826 15.7059 6.6019 15.5944C6.62554 15.4829 6.67427 15.3783 6.7444 15.2884C6.81453 15.1986 6.90421 15.1259 7.00663 15.0759C7.10904 15.026 7.22151 15 7.33547 14.9999H8.625C8.86679 14.2739 9.36047 13.6583 10.0167 13.2646L10.1808 13.1667C10.6025 12.9137 11.0813 12.7712 11.5727 12.7523C12.0641 12.7334 12.5524 12.8386 12.9923 13.0584L13.0087 13.0668C13.4944 13.3097 13.9028 13.6829 14.1883 14.1448C14.4738 14.6067 14.625 15.139 14.625 15.682Z" fill="#4B4B4B"/>
<path d="M14.625 15.75V16.8141C14.625 17.0502 14.5507 17.2803 14.4126 17.4719C14.2746 17.6634 14.0797 17.8066 13.8557 17.8813C13.6248 17.9583 13.3752 17.9583 13.1443 17.8813C12.9203 17.8066 12.7254 17.6634 12.5874 17.4719C12.4493 17.2803 12.375 17.0502 12.375 16.8141V15H13.875L14.625 15.75Z" fill="black"/>
<path d="M11.1402 17.5153L10.3902 18.2653C10.3198 18.3356 10.2244 18.375 10.1249 18.375H9.21413C9.31116 18.1486 9.37491 18 9.37491 18H8.29585C7.93066 18.0003 7.57799 17.8669 7.30444 17.625H9.96976L10.6096 16.9847C10.68 16.9143 10.7754 16.8748 10.8749 16.8748C10.9744 16.8748 11.0699 16.9143 11.1402 16.9847C11.2106 17.055 11.2501 17.1505 11.2501 17.25C11.2501 17.3495 11.2106 17.4449 11.1402 17.5153Z" fill="black"/>
<path d="M7.87512 15V15.4532C7.87512 15.6314 7.80434 15.8023 7.67836 15.9282C7.55238 16.0542 7.38151 16.125 7.20335 16.125H6.65636L6.60808 15.9319C6.58044 15.8213 6.57837 15.7059 6.60201 15.5944C6.62565 15.4829 6.67438 15.3783 6.74451 15.2885C6.81464 15.1986 6.90432 15.126 7.00674 15.076C7.10916 15.026 7.22162 15 7.33558 15H7.87512Z" fill="black"/>
<path d="M9.03805 21.9488C8.96843 21.9487 8.9002 21.9293 8.841 21.8927C8.7818 21.856 8.73397 21.8036 8.70286 21.7414C8.67175 21.6791 8.65859 21.6094 8.66485 21.54C8.67112 21.4707 8.69656 21.4045 8.73833 21.3488C9.1856 20.7528 9.53368 20.0885 9.76912 19.3815C9.78433 19.3343 9.80873 19.2906 9.84093 19.253C9.87312 19.2153 9.91246 19.1844 9.95668 19.162C10.0009 19.1396 10.0491 19.1262 10.0985 19.1226C10.148 19.119 10.1976 19.1252 10.2446 19.1408C10.2916 19.1565 10.3351 19.1813 10.3724 19.2139C10.4098 19.2465 10.4403 19.2861 10.4623 19.3305C10.4842 19.375 10.4971 19.4233 10.5003 19.4728C10.5034 19.5222 10.4967 19.5718 10.4806 19.6187C10.2197 20.4021 9.83397 21.1383 9.33833 21.7988C9.3034 21.8454 9.25807 21.8833 9.20594 21.9093C9.15381 21.9354 9.09632 21.9489 9.03805 21.9488Z" fill="black"/>
<path d="M12 6.375C12.3525 6.25751 12.6752 6.06459 12.9456 5.80968C13.216 5.55476 13.4276 5.24397 13.5656 4.89895L13.875 4.125L12 3.75V6.375Z" fill="#834B10"/>
<path d="M13.875 4.125L13.9189 4.19086C14.3668 4.86273 14.9737 5.41362 15.6856 5.79464C16.3975 6.17565 17.1925 6.37501 18 6.375V3.75L13.875 4.125Z" fill="#834B10"/>
<path d="M13.4688 7.9375C13.7276 7.9375 13.9375 7.72763 13.9375 7.46875C13.9375 7.20987 13.7276 7 13.4688 7C13.2099 7 13 7.20987 13 7.46875C13 7.72763 13.2099 7.9375 13.4688 7.9375Z" fill="black"/>
<path d="M15.4688 7.9375C15.7276 7.9375 15.9375 7.72763 15.9375 7.46875C15.9375 7.20987 15.7276 7 15.4688 7C15.2099 7 15 7.20987 15 7.46875C15 7.72763 15.2099 7.9375 15.4688 7.9375Z" fill="black"/>
<path d="M17.25 16.125C17.1505 16.125 17.0552 16.0855 16.9848 16.0152C16.9145 15.9448 16.875 15.8495 16.875 15.75V13.125C16.875 13.0255 16.9145 12.9302 16.9848 12.8598C17.0552 12.7895 17.1505 12.75 17.25 12.75C17.3495 12.75 17.4448 12.7895 17.5152 12.8598C17.5855 12.9302 17.625 13.0255 17.625 13.125V15.75C17.625 15.8495 17.5855 15.9448 17.5152 16.0152C17.4448 16.0855 17.3495 16.125 17.25 16.125Z" fill="#C3C3C3"/>
<path d="M17.25 18C17.8713 18 18.375 17.4963 18.375 16.875C18.375 16.2537 17.8713 15.75 17.25 15.75C16.6287 15.75 16.125 16.2537 16.125 16.875C16.125 17.4963 16.6287 18 17.25 18Z" fill="#E4E4E2"/>
<path d="M17.25 17.25C17.4571 17.25 17.625 17.0821 17.625 16.875C17.625 16.6679 17.4571 16.5 17.25 16.5C17.0429 16.5 16.875 16.6679 16.875 16.875C16.875 17.0821 17.0429 17.25 17.25 17.25Z" fill="#C3C3C3"/>
<path d="M18.75 22.875H13.125C12.8266 22.875 12.5405 22.7565 12.3295 22.5455C12.1185 22.3345 12 22.0484 12 21.75C12 21.4516 12.1185 21.1655 12.3295 20.9545C12.5405 20.7435 12.8266 20.625 13.125 20.625H13.5C13.5 20.4261 13.579 20.2353 13.7197 20.0947C13.8603 19.954 14.0511 19.875 14.25 19.875H14.3144C14.5133 19.875 14.704 19.954 14.8447 20.0947L15.375 20.625H18.75V22.875Z" fill="#F6BB92"/>
<path d="M6.27602 21.1342C6.2206 21.2569 6.19233 21.3901 6.19313 21.5248C6.19394 21.6594 6.2238 21.7923 6.28068 21.9144C6.33756 22.0365 6.42011 22.1448 6.5227 22.232C6.6253 22.3192 6.74551 22.3833 6.87513 22.4198L8.3186 22.8276C8.60571 22.9088 8.9133 22.8725 9.1737 22.7269C9.4341 22.5812 9.62598 22.3381 9.70713 22.051C9.78824 21.7639 9.75198 21.4563 9.60634 21.1959C9.4607 20.9356 9.2176 20.7437 8.9305 20.6625L8.56956 20.5606C8.59636 20.4658 8.60422 20.3667 8.5927 20.2689C8.58118 20.1711 8.5505 20.0765 8.50243 19.9905C8.45435 19.9045 8.38981 19.8289 8.3125 19.7679C8.23519 19.7068 8.14661 19.6617 8.05183 19.6349L7.98991 19.6174C7.89513 19.5906 7.796 19.5827 7.69818 19.5943C7.60036 19.6058 7.50577 19.6365 7.41981 19.6846C6.99469 19.9224 6.65707 20.2903 6.45658 20.7342L6.27602 21.1342Z" fill="#F6BB92"/>
<path d="M4.36175 9C4.72054 9.00003 5.06462 9.16533 5.31834 9.45955L5.99994 10.25L6.68147 9.45955C6.93519 9.16534 7.27927 9.00005 7.63806 9C7.93979 8.99999 8.23286 9.11697 8.47069 9.33232C8.70851 9.54768 8.87743 9.84906 8.9506 10.1886C9.03335 10.5724 9.01174 10.9765 8.88873 11.3455C8.76572 11.7146 8.54733 12.0305 8.26348 12.2499L6.00001 14L3.73653 12.2499C3.45267 12.0305 3.23427 11.7146 3.11126 11.3456C2.98825 10.9765 2.96665 10.5724 3.04941 10.1886C3.12257 9.8491 3.29146 9.54775 3.52924 9.3324C3.76703 9.11704 4.06005 9.00004 4.36175 9Z" fill="#5D62B5"/>
<path d="M12 6.375H12.375V8.625H12V6.375Z" fill="#EEB58E"/>
<path d="M17.625 6.375H18V8.625H17.625V6.375Z" fill="#EEB58E"/>
<path d="M13.5466 12.7911L15.0001 14.25L16.4385 12.8022C16.3509 12.7876 16.2714 12.7424 16.214 12.6747C16.1566 12.607 16.1251 12.5211 16.1251 12.4323V11.25H13.8751V12.419C13.8751 12.5104 13.8417 12.5986 13.7813 12.6671C13.7208 12.7357 13.6373 12.7797 13.5466 12.7911Z" fill="#F6BB92"/>
<path d="M15 12C13.9391 12 12.9217 11.6313 12.1716 10.9749C11.4214 10.3185 11 9.42826 11 8.5V8H19V8.5C19 9.42826 18.5786 10.3185 17.8284 10.9749C17.0783 11.6313 16.0609 12 15 12Z" fill="#5D62B5"/>
<path d="M10.5 15.75C10.7071 15.75 10.875 15.5821 10.875 15.375C10.875 15.1679 10.7071 15 10.5 15C10.2929 15 10.125 15.1679 10.125 15.375C10.125 15.5821 10.2929 15.75 10.5 15.75Z" fill="black"/>
</svg>
