<svg width="63" height="63" viewBox="0 0 24 24" fill="none" xmlns="http://www.w3.org/2000/svg">
<path d="M22.2414 2H1.75862C1.33965 2 1 2.34112 1 2.7619V17.2381C1 17.6589 1.33965 18 1.75862 18H22.2414C22.6604 18 23 17.6589 23 17.2381V2.7619C23 2.34112 22.6604 2 22.2414 2Z" fill="#5D62B5"/>
<path d="M10.5 9.25L8.25 11.5C8.18297 11.4667 8.11797 11.4306 8.055 11.3917C7.68222 11.1655 7.36949 10.8527 7.14329 10.4798C6.9171 10.107 6.78412 9.68514 6.75562 9.25C6.75187 9.19141 6.75 9.13234 6.75 9.07281V8.125H9L10.5 9.25Z" fill="#F3AF3E"/>
<path d="M9.74999 10.375L8.81249 10.9375L8.05499 11.3917C7.68221 11.1655 7.36948 10.8527 7.14328 10.4798C6.91709 10.107 6.78411 9.68514 6.75562 9.25H8.65921L9.5653 10.1847L9.74999 10.375Z" fill="#5B3726"/>
<path d="M17.25 8.125V9.07281C17.25 9.13234 17.2481 9.19141 17.2444 9.25C17.2133 9.72282 17.0589 10.1793 16.7968 10.574C16.5346 10.9687 16.1737 11.2879 15.75 11.5L13.5 9.25L15 8.125H17.25Z" fill="#F3AF3E"/>
<path d="M17.2444 9.25C17.2178 9.65557 17.1005 10.05 16.9011 10.4041C16.7017 10.7583 16.4252 11.0631 16.0922 11.2961L15 10.75L14.25 10.375L14.4347 10.1847L15.3408 9.25H17.2444Z" fill="#5B3726"/>
<path d="M16.125 12.25V17.125H7.875V12.25C7.875 11.156 8.3096 10.1068 9.08318 9.33318C9.85677 8.5596 10.906 8.125 12 8.125C13.094 8.125 14.1432 8.5596 14.9168 9.33318C15.6904 10.1068 16.125 11.156 16.125 12.25Z" fill="#F3AF3E"/>
<path d="M10.0071 10.775L11.1325 10.4003L11.3695 11.1121L10.2441 11.4868L10.0071 10.775Z" fill="#D18D28"/>
<path d="M12.6313 11.0996L12.8684 10.3878L13.9937 10.7625L13.7567 11.4743L12.6313 11.0996Z" fill="#D18D28"/>
<path d="M14.3354 13.6708L14 13C13.7028 13.1476 12.6932 13.9665 12.3752 13.8715V13H11.6252V13.8719C11.3072 13.9667 10.2972 13.1476 9.99999 13L9.66455 13.6708C9.92198 13.7988 10.8713 14.6614 11.1586 14.674C11.4458 14.6867 11.7325 14.639 12.0002 14.534C12.2679 14.6389 12.5546 14.6866 12.8419 14.6739C13.1291 14.6612 14.078 13.7989 14.3354 13.6708Z" fill="#744630"/>
<path d="M9 16C9.00024 16.1317 8.96563 16.261 8.89968 16.375H7.875V14.875C8.17337 14.875 8.45952 14.9935 8.67049 15.2045C8.88147 15.4155 9 15.7016 9 16Z" fill="#D18D28"/>
<path d="M16.125 14.875V16.375H15.1003C15.0344 16.261 14.9998 16.1317 15 16C15 15.7016 15.1185 15.4155 15.3295 15.2045C15.5405 14.9935 15.8266 14.875 16.125 14.875Z" fill="#D18D28"/>
<path d="M7.875 16.75H7.125C6.92609 16.75 6.73532 16.671 6.59467 16.5303C6.45402 16.3897 6.375 16.1989 6.375 16C6.375 15.7016 6.49353 15.4155 6.7045 15.2045C6.91548 14.9935 7.20163 14.875 7.5 14.875C7.79837 14.875 8.08452 14.9935 8.2955 15.2045C8.50647 15.4155 8.625 15.7016 8.625 16C8.625 16.1989 8.54598 16.3897 8.40533 16.5303C8.26468 16.671 8.07391 16.75 7.875 16.75Z" fill="#F3AF3E"/>
<path d="M16.875 16.75H16.125C15.9261 16.75 15.7353 16.671 15.5947 16.5303C15.454 16.3897 15.375 16.1989 15.375 16C15.375 15.7016 15.4935 15.4155 15.7045 15.2045C15.9155 14.9935 16.2016 14.875 16.5 14.875C16.7984 14.875 17.0845 14.9935 17.2955 15.2045C17.5065 15.4155 17.625 15.7016 17.625 16C17.625 16.1989 17.546 16.3897 17.4053 16.5303C17.2647 16.671 17.0739 16.75 16.875 16.75Z" fill="#F3AF3E"/>
<path d="M12 13.375C11.8011 13.375 11.6103 13.296 11.4697 13.1553C11.329 13.0147 11.25 12.8239 11.25 12.625V11.875H12.75V12.625C12.75 12.8239 12.671 13.0147 12.5303 13.1553C12.3897 13.296 12.1989 13.375 12 13.375Z" fill="#5B3726"/>
<path d="M15.375 20.375H8.625L8.68922 20.3108C9.36809 19.6314 9.74961 18.7104 9.75 17.75H14.25C14.2501 18.7105 14.6316 19.6316 15.3108 20.3108L15.375 20.375Z" fill="#D9D9D9"/>
<path d="M22.2414 18H1.75862C1.55742 18 1.36446 17.9157 1.22219 17.7657C1.07993 17.6157 1 17.4122 1 17.2V16H23V17.2C23 17.4122 22.9201 17.6157 22.7778 17.7657C22.6355 17.9157 22.4426 18 22.2414 18Z" fill="#E4E4E2"/>
<path d="M8.625 20.375H15.375C15.5739 20.375 15.7647 20.454 15.9053 20.5947C16.046 20.7353 16.125 20.9261 16.125 21.125V21.875H7.875V21.125C7.875 20.9261 7.95402 20.7353 8.09467 20.5947C8.23532 20.454 8.42609 20.375 8.625 20.375Z" fill="#E4E4E2"/>
<path d="M14.3286 18.5H9.67114C9.72354 18.2534 9.74993 18.0021 9.74989 17.75H14.2499C14.2499 18.0021 14.2762 18.2534 14.3286 18.5Z" fill="#A8A8A8"/>
<circle cx="21" cy="4" r="1" fill="#62B58F"/>
</svg>
