<svg width="63" height="63" viewBox="0 0 24 24" fill="none" xmlns="http://www.w3.org/2000/svg">
<path d="M22.875 9.12703V9.60984C22.875 11.1279 22.4991 12.6223 21.7807 13.9597C21.0624 15.297 20.0241 16.4357 18.7584 17.2739L14.625 20.0114L13.125 21.0047L12 21.75L11.625 21.5044L10.5 20.767L9.96094 20.4141L5.91891 17.7661L5.38781 17.4183L5.27953 17.347C4.00333 16.5109 2.95533 15.3702 2.23004 14.0279C1.50475 12.6856 1.12499 11.1839 1.125 9.65812V8.57391C1.12503 7.38281 1.46472 6.21642 2.10422 5.21156C2.60851 4.41887 3.30467 3.76623 4.12822 3.3141C4.95178 2.86196 5.87612 2.62495 6.81562 2.625H6.95766C7.82465 2.62504 8.67973 2.82694 9.45518 3.2147C10.2306 3.60247 10.9051 4.16545 11.4253 4.85906L12 5.625L12.5747 4.85906C13.1275 4.12185 13.8542 3.5329 14.69 3.14473C15.5257 2.75656 16.4445 2.58122 17.3645 2.63436C18.2844 2.6875 19.1769 2.96747 19.9624 3.44929C20.7479 3.93111 21.402 4.59981 21.8663 5.39578C22.5266 6.52841 22.8747 7.81595 22.875 9.12703Z" fill="#5D62B5"/>
<path d="M13.125 17.8125V21V21.0047L14.625 20.0114V16.6406L13.125 17.8125Z" fill="#EA9D2D"/>
<path d="M16.875 7.875V8.8125C16.8751 8.93562 16.8509 9.05755 16.8038 9.17131C16.7567 9.28507 16.6876 9.38843 16.6005 9.47549C16.5135 9.56256 16.4101 9.63161 16.2963 9.67871C16.1826 9.72581 16.0607 9.75004 15.9375 9.75H15V12L14.8628 12.3756L15.1004 12.75L15.2832 14.1206C15.3281 14.4561 15.3423 14.795 15.3254 15.1331C15.2934 15.7758 15.0468 16.3891 14.625 16.875L13.125 18V21.0047L12 21.75L11.625 21.5044V18.75L9.96098 20.4141L5.91895 17.7661L9.00004 13.5L9.75004 12.375L10.7321 11.393L11.2286 11.2714L11.25 10.875V9.83063C11.2501 8.81844 11.6523 7.84773 12.368 7.13203C12.6128 6.88752 12.9445 6.75012 13.2905 6.75H14.1024C14.4372 6.75007 14.7582 6.8831 14.9949 7.11984L15.75 7.875H16.875Z" fill="#FBB540"/>
<path d="M13.5 7.875H14.25V8.625H13.5V7.875Z" fill="#985713"/>
<path d="M15.1004 12.7499H14.5594C13.8047 12.749 13.0604 12.5733 12.3849 12.2367L10.7321 11.3929L11.25 10.875V10.8154L12.7233 11.5673C13.2937 11.8513 13.9222 11.9994 14.5594 12H15L15.1004 12.7499Z" fill="#5D62B5"/>
<path d="M12.0933 11.25H11.25V10.5H12.0933C12.168 10.4999 12.2396 10.4702 12.2924 10.4174C12.3452 10.3646 12.3749 10.293 12.375 10.2183V9H13.125V10.2183C13.1247 10.4918 13.0159 10.754 12.8225 10.9475C12.6291 11.1409 12.3669 11.2497 12.0933 11.25Z" fill="#985713"/>
<path d="M12 13.5V14.25C11.9999 14.5483 11.8814 14.8345 11.6704 15.0454C11.4595 15.2564 11.1734 15.3749 10.875 15.375V16.7391C10.8752 17.0723 10.7765 17.398 10.5914 17.6752L10.125 18.375V19.5L10.2614 19.7728L10.3748 20.0002L10.5 20.25V20.767L9.96094 20.4141L5.91891 17.7661L5.38782 17.4183L7.5 14.25V13.0762C7.5 13.0477 7.50047 13.0186 7.50141 12.99C7.52515 12.4416 7.73325 11.9172 8.09204 11.5017L8.625 10.875L9 12.375H9.89794C10.0831 12.375 10.2654 12.4207 10.4287 12.5082C10.592 12.5956 10.7311 12.722 10.8338 12.8761C10.9618 13.068 11.1353 13.2253 11.3387 13.3342C11.5422 13.443 11.7693 13.4999 12 13.5Z" fill="#E4E4E2"/>
<path d="M9.375 13.5H10.125V14.25H9.375V13.5Z" fill="#29C3BE"/>
</svg>
