<svg width="123.61" height="24.79" viewBox="0 0 251 50" fill="none" xmlns="http://www.w3.org/2000/svg">
<path d="M0.232407 2.82099H9.14831V39.0484H0.232407V2.82099ZM12.6849 25.3698C12.6849 16.41 18.1534 11.064 26.5937 11.064C35.0341 11.064 40.5025 16.41 40.5025 25.3698C40.5025 34.3296 35.153 39.7054 26.5937 39.7054C18.0345 39.7054 12.6849 34.4789 12.6849 25.3698ZM31.5569 25.3698C31.5569 20.4419 29.6251 17.5449 26.5937 17.5449C23.5623 17.5449 21.6603 20.5315 21.6603 25.3698C21.6603 30.2081 23.5326 33.1349 26.5937 33.1349C29.6549 33.1349 31.5569 30.3873 31.5569 25.3997V25.3698ZM43.8609 40.8105H52.4201C52.8274 41.7199 53.5161 42.4728 54.3836 42.9572C55.2512 43.4415 56.2511 43.6313 57.2347 43.4984C60.6227 43.4984 62.4059 41.6467 62.4059 38.9588V33.9413H62.2276C61.5172 35.4791 60.3645 36.7677 58.9183 37.6407C57.4721 38.5138 55.7987 38.9313 54.1141 38.8393C47.6055 38.8393 43.2962 33.8517 43.2962 25.2802C43.2962 16.7087 47.3975 11.3029 54.233 11.3029C55.9704 11.2345 57.6871 11.7013 59.1531 12.6407C60.6192 13.5802 61.7645 14.9474 62.4356 16.5593V11.5717H71.3515V38.7497C71.3515 45.2904 65.6156 49.3522 57.1455 49.3522C49.2698 49.3522 44.3661 45.7981 43.8609 40.8404V40.8105ZM62.4356 25.3399C62.4356 20.9795 60.4444 18.2318 57.2941 18.2318C54.1438 18.2318 52.2121 20.9496 52.2121 25.3399C52.2121 29.7302 54.1141 32.2091 57.2941 32.2091C60.4741 32.2091 62.4356 29.7899 62.4356 25.3698V25.3399ZM74.7098 25.3399C74.7098 16.3801 80.1783 11.0341 88.6186 11.0341C97.059 11.0341 102.557 16.3801 102.557 25.3399C102.557 34.2997 97.2076 39.6756 88.6186 39.6756C80.0297 39.6756 74.7098 34.4789 74.7098 25.3698V25.3399ZM93.5818 25.3399C93.5818 20.412 91.65 17.515 88.6186 17.515C85.5872 17.515 83.8338 20.5315 83.8338 25.3997C83.8338 30.2678 85.7061 33.1648 88.7375 33.1648C91.7689 33.1648 93.5818 30.3873 93.5818 25.3997V25.3399ZM105.945 5.06094C105.922 4.15632 106.166 3.2651 106.648 2.50025C107.129 1.7354 107.825 1.13137 108.648 0.764736C109.472 0.398101 110.385 0.285371 111.272 0.440834C112.159 0.596297 112.98 1.01295 113.631 1.63798C114.283 2.26301 114.734 3.06827 114.93 3.95168C115.125 4.83508 115.055 5.75684 114.728 6.60012C114.401 7.4434 113.833 8.17021 113.095 8.68842C112.356 9.20664 111.482 9.49292 110.581 9.51097C109.985 9.55217 109.386 9.46891 108.823 9.26641C108.259 9.06391 107.744 8.74655 107.308 8.33426C106.873 7.92198 106.527 7.42367 106.293 6.87064C106.058 6.31762 105.94 5.72182 105.945 5.12067V5.06094ZM105.945 11.6315H114.861V39.0484H105.945V11.6315ZM147.226 25.3399C147.226 34.2997 143.273 39.4068 136.497 39.4068C134.759 39.5189 133.03 39.092 131.541 38.184C130.053 37.2759 128.878 35.9305 128.175 34.3296H127.997V47.829H119.081V11.5717H127.997V16.4697H128.175C128.845 14.8424 129.998 13.4619 131.476 12.5161C132.954 11.5702 134.687 11.1049 136.438 11.1835C143.273 11.3029 147.345 16.4399 147.345 25.3997L147.226 25.3399ZM138.31 25.3399C138.31 20.9795 136.319 18.202 133.198 18.202C130.078 18.202 128.086 21.0094 128.057 25.3399C128.027 29.6705 130.078 32.448 133.198 32.448C136.319 32.448 138.31 29.7302 138.31 25.3997V25.3399ZM162.531 11.0043C169.932 11.0043 174.419 14.5285 174.627 20.1731H166.514C166.514 18.2318 164.909 17.0073 162.442 17.0073C159.975 17.0073 158.876 17.963 158.876 19.3667C158.876 20.7704 159.857 21.2184 161.848 21.6365L167.554 22.8013C172.993 23.9661 175.311 26.1762 175.311 30.3275C175.311 36.0021 170.169 39.6457 162.591 39.6457C155.012 39.6457 150.049 36.0021 149.663 30.4171H158.252C158.519 32.448 160.124 33.6427 162.739 33.6427C165.355 33.6427 166.544 32.7765 166.544 31.343C166.544 29.9094 165.711 29.6108 163.572 29.1628L158.43 28.0577C153.11 26.9527 150.317 24.1154 150.317 19.9342C150.376 14.5583 155.161 11.064 162.531 11.064V11.0043ZM205.06 38.9887H196.471V33.8816H196.293C195.821 35.5963 194.779 37.097 193.341 38.1347C191.903 39.1724 190.155 39.6845 188.387 39.586C187.033 39.6634 185.678 39.4477 184.413 38.9535C183.149 38.4592 182.004 37.698 181.058 36.7213C180.111 35.7445 179.384 34.5749 178.926 33.2916C178.468 32.0082 178.289 30.641 178.402 29.2822V11.5717H187.318V27.2215C187.318 30.4769 188.982 32.2091 191.746 32.2091C192.394 32.2104 193.035 32.0725 193.626 31.8046C194.216 31.5367 194.743 31.1449 195.171 30.6557C195.599 30.1664 195.918 29.5909 196.106 28.9677C196.294 28.3445 196.348 27.688 196.263 27.0423V11.5717H205.179L205.06 38.9887ZM209.37 11.5717H217.988V16.858H218.167C218.64 15.166 219.658 13.6795 221.061 12.631C222.465 11.5826 224.175 11.0315 225.923 11.064C227.702 10.9208 229.47 11.4559 230.874 12.5627C232.278 13.6694 233.216 15.2669 233.502 17.0372H233.68C234.219 15.2481 235.336 13.69 236.853 12.6086C238.37 11.5271 240.203 10.9838 242.061 11.064C243.274 11.0231 244.481 11.2389 245.605 11.6976C246.729 12.1563 247.745 12.8475 248.586 13.7263C249.426 14.6051 250.074 15.6519 250.486 16.7986C250.898 17.9453 251.065 19.1662 250.977 20.3822V39.0484H242.061V22.7715C242.061 19.7849 240.724 18.411 238.227 18.411C237.671 18.4063 237.119 18.5216 236.611 18.7492C236.102 18.9767 235.648 19.3113 235.279 19.7302C234.91 20.1491 234.635 20.6427 234.472 21.1776C234.309 21.7126 234.262 22.2765 234.334 22.8312V39.0484H225.864V22.652C225.864 19.9043 224.527 18.411 222.09 18.411C221.527 18.4112 220.97 18.5313 220.457 18.7635C219.943 18.9957 219.485 19.3346 219.111 19.758C218.737 20.1813 218.458 20.6794 218.29 21.2195C218.122 21.7595 218.07 22.3292 218.137 22.8909V39.0484H209.221L209.37 11.5717Z" fill="#FFFFFF"/>
</svg>
