 <svg width="39.74" height="41" viewBox="0 0 81 81" fill="none" xmlns="http://www.w3.org/2000/svg">
<path d="M77.2975 24.4637C75.7851 20.9884 73.7833 17.7497 71.3536 14.8469C67.7619 10.4278 63.2796 6.8231 58.2017 4.2702C53.1238 1.71729 47.5655 0.274017 41.8925 0.0353636C36.2196 -0.203289 30.5607 0.768083 25.2882 2.88556C20.0158 5.00304 15.2494 8.21861 11.3027 12.3206C7.35596 16.4226 4.31847 21.3181 2.39011 26.6848C0.461745 32.0515 -0.31377 37.7678 0.114613 43.4574C0.542996 49.147 2.16556 54.6809 4.87552 59.6949C7.58547 64.7089 11.3214 69.0894 15.8373 72.5479C18.735 74.8115 21.9368 76.6515 25.3476 78.0134C30.1296 79.9827 35.2475 80.9971 40.4155 81C51.083 80.9763 61.3061 76.7031 68.8436 69.1173C76.3812 61.5314 80.6183 51.2517 80.6261 40.5316C80.634 35.002 79.5006 29.5308 77.2975 24.4637ZM40.3857 8.24652C45.0266 8.24602 49.6115 9.26536 53.819 11.2331C52.793 11.6786 51.7143 11.9898 50.6093 12.159C46.9734 12.6879 43.6052 14.3842 41.0074 16.9948C38.4096 19.6053 36.7216 22.9901 36.1953 26.6439C35.9642 28.6931 35.0368 30.5995 33.5696 32.0413C32.1023 33.4831 30.185 34.3722 28.1413 34.5584C24.5053 35.0873 21.1371 36.7837 18.5393 39.3942C15.9416 42.0048 14.2535 45.3896 13.7272 49.0434C13.549 50.9919 12.7218 52.8229 11.3794 54.2401C9.06319 49.322 8.0227 43.8949 8.35473 38.4641C8.68675 33.0332 10.3805 27.775 13.2784 23.1787C16.1762 18.5825 20.184 14.7977 24.9288 12.1764C29.6735 9.55518 35.001 8.18273 40.4155 8.18679L40.3857 8.24652ZM15.8076 61.4378C16.1642 61.1093 16.5209 60.8106 16.8775 60.4522C19.5215 57.8761 21.2187 54.4756 21.6921 50.8055C21.884 48.7425 22.8006 46.8156 24.2777 45.3699C25.699 43.8831 27.6122 42.9696 29.657 42.8014C33.2929 42.2725 36.6611 40.5762 39.2589 37.9656C41.8566 35.3551 43.5447 31.9703 44.071 28.3164C44.1996 26.1587 45.121 24.1258 46.6566 22.6121C48.113 21.1541 50.0444 20.2739 52.0953 20.1332C55.4355 19.6713 58.5508 18.1791 61.0112 15.8623C63.8127 18.1981 66.1864 21.0079 68.025 24.1651C67.9121 24.3184 67.7825 24.4587 67.6387 24.5832C66.22 26.0831 64.3094 27.0166 62.2594 27.2114C58.6198 27.7311 55.2465 29.4244 52.647 32.0367C50.0475 34.6489 48.3625 38.0388 47.8454 41.6964C47.6359 43.7525 46.7256 45.6725 45.2686 47.1312C43.8116 48.59 41.8975 49.4977 39.8508 49.7005C36.2043 50.2253 32.8235 51.9183 30.2107 54.5278C27.5978 57.1374 25.8924 60.5243 25.3476 64.1855C25.1877 65.6451 24.6888 67.0466 23.8913 68.2771C20.8421 66.4578 18.1111 64.1472 15.8076 61.4378ZM40.3857 72.9661C37.37 72.9694 34.3688 72.5471 31.4699 71.7117C32.4615 69.854 33.1061 67.8296 33.3719 65.7385C33.5802 63.687 34.4863 61.7705 35.9373 60.3124C37.3883 58.8543 39.2954 57.9437 41.3368 57.7344C44.9781 57.2114 48.353 55.5177 50.9566 52.9067C53.5603 50.2956 55.2526 46.9076 55.7805 43.2494C55.9888 41.198 56.8949 39.2815 58.3459 37.8233C59.7969 36.3652 61.704 35.4547 63.7454 35.2453C66.4856 34.8872 69.0973 33.8619 71.3536 32.2588C72.6065 37.0311 72.7549 42.0283 71.7875 46.8672C70.82 51.7061 68.7625 56.258 65.7727 60.1737C62.7828 64.0895 58.9402 67.2649 54.5395 69.4565C50.1389 71.6481 45.2971 72.7976 40.3857 72.8167V72.9661Z" fill="#F2726F"/>
</svg>